<svg xmlns="http://www.w3.org/2000/svg" viewBox="0 0 19.86 19.85"><defs><style>.cls-1{fill:#fff;}</style></defs><g id="Layer_2" data-name="Layer 2"><g id="Layer_1-2" data-name="Layer 1"><path class="cls-1" d="M19.86,4.9V15l-.06.3a5.42,5.42,0,0,1-3,4,5.73,5.73,0,0,1-1.81.54H4.91a5.73,5.73,0,0,1-1.86-.56,5.28,5.28,0,0,1-3-4.73C0,11.48,0,8.4,0,5.32A5,5,0,0,1,.28,3.8,5.52,5.52,0,0,1,5.56,0c2.93,0,5.85,0,8.77,0a4.9,4.9,0,0,1,.77,0,5.45,5.45,0,0,1,4.23,3.06A5.87,5.87,0,0,1,19.86,4.9Zm-18,5h0v4.27a6.79,6.79,0,0,0,0,.78,3.68,3.68,0,0,0,3.48,3.06c3,0,6.09,0,9.14,0A3.15,3.15,0,0,0,15,18a3.66,3.66,0,0,0,3.06-3.47c0-3,0-6.09,0-9.14A3.15,3.15,0,0,0,18,4.88a3.66,3.66,0,0,0-3.47-3.06c-3,0-6.09,0-9.14,0a3.15,3.15,0,0,0-.52.05A3.66,3.66,0,0,0,1.83,5.33C1.81,6.86,1.82,8.4,1.82,9.94Z"/><path class="cls-1" d="M10,15.06a5.13,5.13,0,1,1,5.11-5.14A5.12,5.12,0,0,1,10,15.06Zm3.31-5.12a3.33,3.33,0,1,0-3.34,3.32A3.31,3.31,0,0,0,13.27,9.94Z"/><path class="cls-1" d="M15.28,5.93A1.31,1.31,0,0,1,14,4.64a1.31,1.31,0,1,1,1.32,1.29Z"/></g></g></svg>