<svg xmlns="http://www.w3.org/2000/svg" viewBox="0 0 19.95 19.95"><defs><style>.cls-1{fill:#fff;}</style></defs><g id="Layer_2" data-name="Layer 2"><g id="Layer_1-2" data-name="Layer 1"><path class="cls-1" d="M10.8,20H9.17c-.35-.05-.71-.09-1.06-.15A10,10,0,1,1,12,.23a9.72,9.72,0,0,1,7.62,7.15A9.9,9.9,0,0,1,20,9.17v1.64c-.05.32-.07.65-.14,1a9.89,9.89,0,0,1-7.18,7.83A9.38,9.38,0,0,1,10.8,20Zm0-6.74v-2.6c0-.29,0-.29.29-.29h1.13c.12,0,.2,0,.21-.16,0-.54.11-1.08.17-1.62,0-.17,0-.22-.2-.22H11.07c-.19,0-.25-.07-.24-.25s0-.64,0-1,.19-.6.6-.6h1c.14,0,.19-.06.19-.2V4.78c0-.14-.06-.19-.2-.19-.62,0-1.25,0-1.88,0A2,2,0,0,0,8.62,6a2.58,2.58,0,0,0-.15.88c0,.37,0,.73,0,1.1s0,.31-.3.31H7.51c-.14,0-.2.06-.2.2,0,.54,0,1.08,0,1.61,0,.15.07.2.2.19H8.1c.35,0,.37-.07.37.39v5.1c0,.27,0,.28.29.28h1.81c.25,0,.26,0,.26-.27Z"/></g></g></svg>