<svg xmlns="http://www.w3.org/2000/svg" viewBox="0 0 112.45 64.96"><g id="Layer_2" data-name="Layer 2"><g id="Layer_1-2" data-name="Layer 1"><path d="M62.53,27.23c-1.71.29-3.37.61-5,.85a29.59,29.59,0,0,1-9.62.17,15,15,0,0,1-4-1.29A5.88,5.88,0,0,1,41,19.3a12,12,0,0,1,6-6.53C52.21,10,57.78,11.65,61,16.91a25.18,25.18,0,0,1,2.91,7c.16.61.37.68,1,.57.79-.15,1.15-.73,1.62-1.24.74-.82.73-.82.13-1.75-1.06-1.65-2.1-3.3-3.16-4.95l.12-.18a22.83,22.83,0,0,1,2.78,1.32A32,32,0,0,1,69.36,20a.58.58,0,0,0,.85,0q4.32-3,8.69-6c.65-.45.66-.42.21-1.12L71.64,1.18l-.3-.51,2.08.74c.64.23,1.26.52,1.92.7a8.49,8.49,0,0,1,3,1.83.75.75,0,0,0,1,.06,3.6,3.6,0,0,1,.55-.29,1.21,1.21,0,0,1,1.59.37,1.23,1.23,0,0,1-.23,1.67L81,6c.52.39,1,.78,1.49,1.13a.55.55,0,0,0,.45,0c.27-.1.52-.26.78-.37a1.2,1.2,0,0,1,1.55.35,1.21,1.21,0,0,1-.1,1.59,2.09,2.09,0,0,1-.2.22c.64.87.85.89,1.77.42,4.34-2.21,8.66-4.46,13.05-6.57A28.77,28.77,0,0,1,107.58.14a9,9,0,0,1,2.53-.09,2.4,2.4,0,0,1,2,3.73,12.14,12.14,0,0,1-2.31,2.79,41.66,41.66,0,0,1-8.12,5.55c-3.54,2-7.16,3.77-10.74,5.65-.6.31-.62.32-.45,1.44l.45,0a1.16,1.16,0,0,1,1.16.94,1,1,0,0,1-.54,1.31c-1,.34-1.07,1-1,1.89,0,.22,0,.45,0,.68a.34.34,0,0,0,.12,0c.94-.07,1.43.19,1.63.86s-.09,1.17-.91,1.54a1,1,0,0,0-.7,1.24c.44,2.64-.75,5-1.27,7.46l-.17,0c-1.91-4.67-3.82-9.34-5.78-14.16-.71.32-1.35.65-2,.9-2.88,1.06-5.78,2.1-8.68,3.13-.34.12-.44.25-.42.6.08,1.1.06,2.2.19,3.28A9.6,9.6,0,0,1,72,32.6c-.44-1-.86-1.9-1.25-2.81-.48-1.12-.92-2.26-1.41-3.37-.06-.15-.28-.34-.41-.33-1.2.13-2.41.29-3.61.44-.54.06-.65.3-.55.83a26.88,26.88,0,0,1-.51,12.45,27.62,27.62,0,0,1-7,12A41.55,41.55,0,0,1,27.26,64.37a54.34,54.34,0,0,1-6.71-.62.94.94,0,0,0-.92.28,3,3,0,0,1-3.64.55,3,3,0,0,1,1.44-5.71,2.91,2.91,0,0,1,2.93,2.2c.14.52.45.6.88.68a37.19,37.19,0,0,0,16.55-1A39.61,39.61,0,0,0,53.2,52.72a28.16,28.16,0,0,0,8.25-11.28,24.73,24.73,0,0,0,1.17-14Zm-.39-2c-.94-3.54-2.11-6.78-4.66-9.32A7.5,7.5,0,0,0,52,13.54a10.36,10.36,0,0,0-9.15,6.75A3.72,3.72,0,0,0,44.67,25a11.78,11.78,0,0,0,3,1.09,24.25,24.25,0,0,0,8.37.08C58.05,25.89,60,25.53,62.14,25.19Z"/><path d="M15.06,56.54l-3.59-3L2.81,46.21a7.76,7.76,0,0,1,.52-12.35,7.43,7.43,0,0,1,8-.48,7.43,7.43,0,0,1,4.13,7.11c-.09,5.2-.26,10.4-.39,15.6C15.11,56.19,15.09,56.29,15.06,56.54ZM12,38.36A4.66,4.66,0,0,0,5.87,36a4.65,4.65,0,1,0,3.74,8.51A4.63,4.63,0,0,0,12,38.36Z"/></g></g></svg>