<svg id="Layer_1" data-name="Layer 1" xmlns="http://www.w3.org/2000/svg" viewBox="0 0 569 104"><defs><style>.cls-1{fill:#00a8e8;}.cls-2{fill:#cff9ff;}</style></defs><path class="cls-1" d="M103.76,10.35l-2.57,15H78.42L66.23,95.14H33.94l12-69.82H21l2.67-15Z"/><path class="cls-1" d="M110,10.35h51.65q12.51,0,16.89,2a12.74,12.74,0,0,1,6.37,5.83,23.83,23.83,0,0,1,2.35,5.93,30.09,30.09,0,0,1,.37,5.19,44.4,44.4,0,0,1-.16,4.65c-.1.89-.37,2.42-.8,4.6A20.65,20.65,0,0,1,184,45.15a16.16,16.16,0,0,1-6.15,5.67A25.82,25.82,0,0,1,168,53.76a16.19,16.19,0,0,1,4.17,6.15A55.78,55.78,0,0,1,174,69l2.78,26.19h-32.4L141.93,71.3q-1.17-10.05-2-11.23-.65-1.27-5.88-1.28L127.6,95.14H95.31Zm26.63,33h5.13c5.13,0,8.29-.41,9.46-1.23s2-2.58,2.41-5.29l.64-5.78q0-4.69-3.64-5.13l-10.8-.43Z"/><path class="cls-1" d="M219.35,10.35H260l3.85,84.79h-32.4l-.85-18.71H205.45l-8.77,18.71H180Zm9.09,16.47L212.51,60.93h17.32Z"/><path class="cls-1" d="M301.15,10.35l1.6,55,29.73-55h17.86L304.57,95.14H271.75L269,10.35Z"/><path class="cls-2" d="M358.68,10.35h40.63l3.85,84.79h-32.4l-.85-18.71H344.78L336,95.14H319.33Zm9.09,16.47L351.83,60.93h17.33Z"/><path class="cls-2" d="M403.8,10.35h32.3L444.33,43l21.39-32.61h18L447.54,64.46l-5.13,30.68H410l6.31-36.24Z"/><path class="cls-2" d="M488.38,10.35H558l-2.46,14.33H518.32l-3.2,18.07h25.66l-2.67,15.82H512.44l-3.63,20.86h36.67l-2.67,15.71H473.73Z"/></svg>