<svg xmlns="http://www.w3.org/2000/svg" viewBox="0 0 20.08 20.08"><defs><style>.cls-1{fill:none;stroke:#fff;stroke-miterlimit:10;stroke-width:1.5px;}.cls-2{fill:#fff;}</style></defs><g id="Layer_2" data-name="Layer 2"><g id="Layer_1-2" data-name="Layer 1"><circle class="cls-1" cx="10.04" cy="10.04" r="9.29"/><path class="cls-2" d="M16.34,7.87A2.34,2.34,0,0,0,14,5.54c-1,0-2.11,0-3.16,0-1.61,0-3.22,0-4.84,0a2.32,2.32,0,0,0-2.3,2.3c0,1.46,0,2.92,0,4.39A2.33,2.33,0,0,0,6,14.54c1.34,0,2.68,0,4,0h0c1.33,0,2.67,0,4,0a2.33,2.33,0,0,0,2.3-2.33C16.37,10.77,16.37,9.32,16.34,7.87ZM8.41,12V8.14L11.69,10Z"/></g></g></svg>